<svg width="25" height="25" viewBox="0 0 25 25" fill="none" xmlns="http://www.w3.org/2000/svg">
<path d="M22.6987 2.35352H2.30127C1.05713 2.35352 0 3.35742 0 4.65479V20.3452C0 21.1274 0.384277 21.8032 0.962891 22.2168L9.62842 13.5513C9.91455 13.2651 10.3784 13.2651 10.6646 13.5513L13.2847 16.1714L19.0425 10.4131C19.1802 10.2759 19.3662 10.1987 19.5605 10.1987C19.7549 10.1987 19.9409 10.2759 20.0786 10.4131L25 15.3345V4.65479C25 3.35742 23.9429 2.35352 22.6987 2.35352ZM6.22412 11.6636C4.52246 11.6636 3.13818 10.2793 3.13818 8.57764C3.13818 6.87598 4.52246 5.4917 6.22412 5.4917C7.92578 5.4917 9.31006 6.87598 9.31006 8.57764C9.31006 10.2793 7.92578 11.6636 6.22412 11.6636ZM6.22412 6.95654C5.33008 6.95654 4.60303 7.68359 4.60303 8.57764C4.60303 9.47119 5.33008 10.1987 6.22412 10.1987C7.11768 10.1987 7.84521 9.47119 7.84521 8.57764C7.84521 7.68359 7.11768 6.95654 6.22412 6.95654ZM19.5605 11.9668L13.8022 17.7251C13.5166 18.0107 13.0527 18.0107 12.7666 17.7251L10.1465 15.105L2.60498 22.6465H22.6987C23.9429 22.6465 25 21.6426 25 20.3452V17.4062L19.5605 11.9668Z" fill="#007AFF"/>
</svg>
